<svg id="SVGDoc" width="144" height="144" xmlns="http://www.w3.org/2000/svg" version="1.1" xmlns:xlink="http://www.w3.org/1999/xlink" xmlns:avocode="https://avocode.com/" viewBox="0 0 144 144"><defs><path d="M256.40502,159.30791c18.94922,0 34.31058,15.36137 34.31058,34.3106c0,18.9492 -15.36136,34.3106 -34.31058,34.3106c-18.94922,0 -34.31063,-15.3614 -34.31063,-34.3106c0,-18.94923 15.3614,-34.3106 34.31063,-34.3106z" id="Path-0"/><path d="M308.16998,188.05h15.47003c2.62885,0 4.75998,2.13114 4.75998,4.76003v1.18997c0,2.62889 -2.13113,4.76003 -4.75998,4.76003h-15.47003c-2.62885,0 -4.75998,-2.13114 -4.75998,-4.76003v-1.18997c0,-2.62889 2.13113,-4.76003 4.75998,-4.76003z" id="Path-1"/><path d="M190.36002,188.05h15.46998c2.6289,0 4.76003,2.13114 4.76003,4.76003v1.18997c0,2.62889 -2.13113,4.76003 -4.76003,4.76003h-15.46998c-2.6289,0 -4.76003,-2.13114 -4.76003,-4.76003v-1.18997c0,-2.62889 2.13113,-4.76003 4.76003,-4.76003z" id="Path-2"/><path d="M257.00002,122.60002h1.18999c2.62885,0 4.75998,2.1311 4.75998,4.75999v15.46998c0,2.62889 -2.13113,4.76003 -4.75998,4.76003h-1.18999c-2.6289,0 -4.76003,-2.13114 -4.76003,-4.76003v-15.46998c0,-2.62889 2.13113,-4.75999 4.76003,-4.75999z" id="Path-3"/><path d="M257.00002,240.41001h1.18999c2.62885,0 4.75998,2.13114 4.75998,4.75999v15.47002c0,2.62889 -2.13113,4.75999 -4.75998,4.75999h-1.18999c-2.6289,0 -4.76003,-2.1311 -4.76003,-4.75999v-15.47002c0,-2.62885 2.13113,-4.75999 4.76003,-4.75999z" id="Path-4"/><path d="M205.24316,142.4896l0.84143,-0.84146c1.8589,-1.85888 4.87275,-1.85888 6.73165,0l12.38265,12.38265c1.8589,1.85891 1.8589,4.87279 0,6.73167l-0.84143,0.84146c-1.8589,1.85888 -4.87275,1.85888 -6.73165,0l-12.38265,-12.38265c-1.8589,-1.85891 -1.8589,-4.87279 0,-6.73167z" id="Path-5"/><path d="M289.99109,227.23757l0.84147,-0.84146c1.8589,-1.85888 4.87275,-1.85888 6.73165,0l12.38265,12.38265c1.8589,1.85891 1.8589,4.87275 0,6.73167l-0.84147,0.84146c-1.85885,1.85888 -4.87275,1.85888 -6.73165,0l-12.38265,-12.38265c-1.8589,-1.85891 -1.8589,-4.87279 0,-6.73167z" id="Path-6"/><path d="M311.0054,139.74813l0.84147,0.84146c1.8589,1.85891 1.8589,4.87275 0,6.73167l-14.28266,14.28266c-1.8589,1.85888 -4.87275,1.85888 -6.73165,0l-0.84147,-0.84146c-1.8589,-1.85888 -1.8589,-4.87275 0,-6.73167l14.28266,-14.28266c1.8589,-1.85888 4.87275,-1.85888 6.73165,0z" id="Path-7"/><path d="M224.35746,226.39611l0.84143,0.84146c1.8589,1.85888 1.8589,4.87275 0,6.73167l-14.28266,14.28266c-1.85885,1.85888 -4.87275,1.85888 -6.73165,0l-0.84143,-0.84146c-1.8589,-1.85891 -1.8589,-4.87279 0,-6.73167l14.28266,-14.28266c1.8589,-1.85888 4.87275,-1.85888 6.73165,0z" id="Path-8"/><clipPath id="ClipPath1071"><use xlink:href="#Path-0" fill="#ffffff"/></clipPath></defs><desc>Generated with Avocode.</desc><g transform="matrix(1,0,0,1,-185,-122)"><g><title>sun copy</title><g><title>Ellipse 1</title><use xlink:href="#Path-0" fill-opacity="0" fill="#ffffff" stroke-dashoffset="0" stroke-dasharray="" stroke-linejoin="miter" stroke-linecap="butt" stroke-opacity="1" stroke="#ffffff" stroke-miterlimit="50" stroke-width="18" clip-path="url(&quot;#ClipPath1071&quot;)"/></g><g><title>Rounded Rectangle 1</title><use xlink:href="#Path-1" fill="#ffffff" fill-opacity="1"/></g><g><title>Rounded Rectangle 1 copy</title><use xlink:href="#Path-2" fill="#ffffff" fill-opacity="1"/></g><g><title>Rounded Rectangle 1 copy 2</title><use xlink:href="#Path-3" fill="#ffffff" fill-opacity="1"/></g><g><title>Rounded Rectangle 1 copy 2</title><use xlink:href="#Path-4" fill="#ffffff" fill-opacity="1"/></g><g><title>Rounded Rectangle 1 copy 4</title><use xlink:href="#Path-5" fill="#ffffff" fill-opacity="1"/></g><g><title>Rounded Rectangle 1 copy 4</title><use xlink:href="#Path-6" fill="#ffffff" fill-opacity="1"/></g><g><title>Rounded Rectangle 1 copy 3</title><use xlink:href="#Path-7" fill="#ffffff" fill-opacity="1"/></g><g><title>Rounded Rectangle 1 copy 3</title><use xlink:href="#Path-8" fill="#ffffff" fill-opacity="1"/></g></g></g></svg>