<?xml version="1.0" encoding="UTF-8"?>
<svg width="81px" height="75px" viewBox="0 0 81 75" version="1.1" xmlns="http://www.w3.org/2000/svg" xmlns:xlink="http://www.w3.org/1999/xlink">
    <!-- Generator: Sketch 53.2 (72643) - https://sketchapp.com -->
    <title>Combined shape 86</title>
    <desc>Created with Sketch.</desc>
    <defs>
        <path d="M344.252732,106.006332 L270.719712,106.006332 C268.6892,106.006332 267.043061,104.360324 267.043061,102.329756 C267.043061,100.299188 268.6892,98.653028 270.719712,98.653028 L344.252732,98.653028 C346.283244,98.653028 347.929383,100.299188 347.929383,102.329756 C347.929383,104.360324 346.283244,106.006332 344.252732,106.006332 Z M344.252732,91.2998 L270.719712,91.2998 C268.6892,91.2998 267.043061,89.653716 267.043061,87.623148 C267.043061,85.59258 268.6892,83.946496 270.719712,83.946496 L344.252732,83.946496 C346.283244,83.946496 347.929383,85.59258 347.929383,87.623148 C347.929383,89.653716 346.283244,91.2998 344.252732,91.2998 Z M325.869477,69.239888 C322.927376,69.239888 320.200826,70.124984 317.902141,71.613064 C315.63732,61.837868 306.920162,54.53328 296.456352,54.53328 C284.272948,54.53328 274.396363,64.40986 274.396363,76.593192 L267.043061,76.593192 C267.043061,60.348724 280.211841,47.179976 296.456352,47.179976 C307.494688,47.179976 317.100112,53.26902 322.131323,62.263392 C323.352004,62.054088 324.588953,61.886584 325.869477,61.886584 C335.470336,61.886584 343.61579,68.030956 346.647282,76.593192 L338.592547,76.593192 C336.048597,72.201684 331.309795,69.239888 325.869477,69.239888 Z M270.719712,113.359636 L344.252732,113.359636 C346.283244,113.359636 347.929383,115.005796 347.929383,117.036288 C347.929383,119.066856 346.283244,120.71294 344.252732,120.71294 L270.719712,120.71294 C268.6892,120.71294 267.043061,119.066856 267.043061,117.036288 C267.043061,115.005796 268.6892,113.359636 270.719712,113.359636 Z" id="path-1"></path>
        <filter x="0.7%" y="0.9%" width="98.7%" height="99.4%" filterUnits="objectBoundingBox" id="filter-2">
            <feOffset dx="0" dy="1" in="SourceAlpha" result="shadowOffsetOuter1"></feOffset>
            <feColorMatrix values="0 0 0 0 0.3019608   0 0 0 0 0.81960785   0 0 0 0 0.5176471  0 0 0 0.75 0" type="matrix" in="shadowOffsetOuter1"></feColorMatrix>
        </filter>
    </defs>
    <g id="Page-1" stroke="none" stroke-width="1" fill="none" fill-rule="evenodd">
        <g id="Artboard" transform="translate(-360.000000, -141.000000)">
            <g id="Group-2" transform="translate(93.000000, 94.000000)">
                <g id="Group-1">
                    <g id="Combined-shape-86">
                        <use fill="black" fill-opacity="1" filter="url(#filter-2)" xlink:href="#path-1"></use>
                        <use fill="#FFFFFF" fill-rule="evenodd" xlink:href="#path-1"></use>
                    </g>
                </g>
            </g>
        </g>
    </g>
</svg>