<?xml version="1.0" encoding="UTF-8"?>
<svg width="90px" height="77px" viewBox="0 0 90 77" version="1.1" xmlns="http://www.w3.org/2000/svg" xmlns:xlink="http://www.w3.org/1999/xlink">
    <!-- Generator: Sketch 53.2 (72643) - https://sketchapp.com -->
    <title>Combined shape 85</title>
    <desc>Created with Sketch.</desc>
    <defs>
        <path d="M123.392536,112.443977 L121.349492,112.443977 C121.349492,109.639398 120.696844,106.840112 119.42154,104.271585 L123.392536,104.271585 C132.419484,104.271585 139.737164,96.953894 139.737164,87.927038 C139.737164,78.900103 132.419484,71.582412 123.392536,71.582412 C120.122764,71.582412 117.09256,72.566041 114.537812,74.219827 C112.020784,63.355905 102.332632,55.237786 90.703372,55.237786 C77.162996,55.237786 66.186384,66.214362 66.186384,79.754646 C66.186384,91.917723 75.052792,101.984219 86.668988,103.911898 C85.366728,106.39708 84.689608,109.117919 84.6023,111.854163 C69.467656,108.993652 58.014116,95.72102 58.014116,79.754646 C58.014116,61.700934 72.649568,47.065473 90.703372,47.065473 C102.971204,47.065473 113.646516,53.832771 119.238,63.828878 C120.594816,63.596223 121.96948,63.410099 123.392536,63.410099 C136.932912,63.410099 147.909524,74.386675 147.909524,87.927038 C147.909524,101.467322 136.932912,112.443977 123.392536,112.443977 Z M102.96182,97.997247 L110.1852,105.220612 C114.174504,109.209875 114.174504,115.677921 110.1852,119.667342 C106.195804,123.656684 99.727836,123.656684 95.738348,119.667342 C91.749136,115.677921 91.749136,109.209875 95.738348,105.220612 L102.96182,97.997247 Z" id="path-1"></path>
        <filter x="0.6%" y="0.7%" width="98.8%" height="98.2%" filterUnits="objectBoundingBox" id="filter-2">
            <feOffset dx="0" dy="1" in="SourceAlpha" result="shadowOffsetOuter1"></feOffset>
            <feColorMatrix values="0 0 0 0 0.023529412   0 0 0 0 0.7019608   0 0 0 0 0.85882354  0 0 0 0.75 0" type="matrix" in="shadowOffsetOuter1"></feColorMatrix>
        </filter>
    </defs>
    <g id="Page-1" stroke="none" stroke-width="1" fill="none" fill-rule="evenodd">
        <g id="Artboard" transform="translate(-151.000000, -141.000000)">
            <g id="Group-2" transform="translate(93.000000, 94.000000)">
                <g id="Group-1">
                    <g id="Combined-shape-85">
                        <use fill="black" fill-opacity="1" filter="url(#filter-2)" xlink:href="#path-1"></use>
                        <use fill="#FFFFFF" fill-rule="evenodd" xlink:href="#path-1"></use>
                    </g>
                </g>
            </g>
        </g>
    </g>
</svg>