<?xml version="1.0" encoding="UTF-8"?>
<svg width="87px" height="78px" viewBox="0 0 87 78" version="1.1" xmlns="http://www.w3.org/2000/svg" xmlns:xlink="http://www.w3.org/1999/xlink">
    <!-- Generator: Sketch 53.2 (72643) - https://sketchapp.com -->
    <title>Combined shape 83</title>
    <desc>Created with Sketch.</desc>
    <defs>
        <path d="M554.113099,88.524278 L547.745416,88.524278 C545.987043,88.524278 544.56153,87.098802 544.56153,85.34042 C544.56153,83.582038 545.987043,82.156483 547.745416,82.156483 L554.113099,82.156483 C555.871561,82.156483 557.296985,83.582038 557.296985,85.34042 C557.296985,87.098802 555.871561,88.524278 554.113099,88.524278 Z M541.603971,67.329763 C540.360552,68.573144 538.344613,68.573144 537.101372,67.329763 C535.857953,66.086382 535.857953,64.07046 537.101372,62.827079 L541.603971,58.324474 C542.847301,57.081093 544.86324,57.081093 546.106659,58.324474 C547.349989,59.567855 547.349989,61.583698 546.106659,62.827079 L541.603971,67.329763 Z M536.911624,92.17787 L536.911535,92.17787 C539.695989,95.496976 541.377644,99.772219 541.377644,104.443489 C541.377644,114.993939 532.824922,123.546716 522.274506,123.546716 L496.803685,123.546716 C482.736523,123.546716 471.332775,112.143066 471.332775,98.075852 C471.332775,84.008638 482.736523,72.604909 496.803685,72.604909 C499.307077,72.604909 501.721825,72.974787 504.006099,73.648578 C507.500862,69.146368 512.950065,66.237272 519.09062,66.237272 C529.641036,66.237272 538.193847,74.790049 538.193847,85.34042 C538.193847,87.753238 537.727843,90.052454 536.911624,92.17787 Z M477.700458,98.075852 C477.700458,108.626223 486.253269,117.179 496.803685,117.179 L522.274506,117.179 C529.308087,117.179 535.009961,111.477096 535.009961,104.443489 C535.009961,97.409961 529.308087,91.708136 522.274506,91.708136 C519.726792,91.708136 517.365711,92.474594 515.375048,93.763163 C513.413755,85.298155 505.865042,78.972625 496.803685,78.972625 C486.253269,78.972625 477.700458,87.525402 477.700458,98.075852 Z M519.09062,72.604909 C515.568356,72.604909 512.380554,74.035441 510.075009,76.346507 C513.801261,78.631345 516.89855,81.84309 519.037398,85.66669 C520.09454,85.485385 521.165655,85.34042 522.274506,85.34042 C525.658464,85.34042 528.831314,86.228854 531.588,87.772198 C531.740368,86.98441 531.826164,86.172764 531.826164,85.34042 C531.826164,78.306813 526.12429,72.604909 519.09062,72.604909 Z M519.09062,59.869556 C517.332336,59.869556 515.906823,58.44408 515.906823,56.685619 L515.906823,50.317903 C515.906823,48.5596 517.332336,47.134045 519.09062,47.134045 C520.849082,47.134045 522.274506,48.5596 522.274506,50.317903 L522.274506,56.685619 C522.274506,58.44408 520.849082,59.869556 519.09062,59.869556 Z M496.577358,67.329763 L492.07467,62.827079 C490.831429,61.583698 490.831429,59.567855 492.07467,58.324474 C493.318089,57.081093 495.334028,57.081093 496.577358,58.324474 L501.080046,62.827079 C502.323376,64.07046 502.323376,66.086382 501.080046,67.329763 C499.836716,68.573144 497.820777,68.573144 496.577358,67.329763 Z" id="path-1"></path>
        <filter x="0.9%" y="0.8%" width="97.7%" height="99.3%" filterUnits="objectBoundingBox" id="filter-2">
            <feOffset dx="0" dy="1" in="SourceAlpha" result="shadowOffsetOuter1"></feOffset>
            <feColorMatrix values="0 0 0 0 0.38039216   0 0 0 0 0.22352941   0 0 0 0 0.9647059  0 0 0 0.75 0" type="matrix" in="shadowOffsetOuter1"></feColorMatrix>
        </filter>
    </defs>
    <g id="Page-1" stroke="none" stroke-width="1" fill="none" fill-rule="evenodd">
        <g id="Artboard" transform="translate(-564.000000, -141.000000)">
            <g id="Group-2" transform="translate(93.000000, 94.000000)">
                <g id="Group-1">
                    <g id="Combined-shape-83">
                        <use fill="black" fill-opacity="1" filter="url(#filter-2)" xlink:href="#path-1"></use>
                        <use fill="#FFFFFF" fill-rule="evenodd" xlink:href="#path-1"></use>
                    </g>
                </g>
            </g>
        </g>
    </g>
</svg>