<?xml version="1.0" encoding="UTF-8"?>
<svg width="86px" height="89px" viewBox="0 0 86 89" version="1.1" xmlns="http://www.w3.org/2000/svg" xmlns:xlink="http://www.w3.org/1999/xlink">
    <!-- Generator: Sketch 53.2 (72643) - https://sketchapp.com -->
    <title>Combined shape 84</title>
    <desc>Created with Sketch.</desc>
    <defs>
        <path d="M144.033456,286.87268 L137.752368,286.87268 C136.017888,286.87268 134.611824,285.46661 134.611824,283.73204 C134.611824,281.99756 136.017888,280.59149 137.752368,280.59149 L144.033456,280.59149 C145.767936,280.59149 147.174,281.99756 147.174,283.73204 C147.174,285.46661 145.767936,286.87268 144.033456,286.87268 Z M131.694448,265.9664 C130.467992,267.19292 128.479456,267.19292 127.253,265.9664 C126.026544,264.73997 126.026544,262.75151 127.253,261.52499 L131.694448,257.08358 C132.920904,255.85715 134.90944,255.85715 136.135896,257.08358 C137.362352,258.31001 137.362352,260.29856 136.135896,261.52499 L131.694448,265.9664 Z M127.065912,290.47655 C129.812392,293.75057 131.471192,297.96761 131.471192,302.57543 C131.471192,310.77641 126.222872,317.73413 118.909016,320.32352 L118.909016,313.44329 C122.66028,311.27033 125.190104,307.22249 125.190104,302.57543 C125.190104,295.63751 119.565848,290.01323 112.627928,290.01323 C110.114824,290.01323 107.785816,290.76923 105.822272,292.0403 C103.88768,283.69046 96.44156,277.45094 87.503488,277.45094 C77.096608,277.45094 68.660136,285.88745 68.660136,296.29433 C68.660136,301.86812 71.09448,306.86114 74.941312,310.31111 L74.941312,318.03014 C67.438784,313.68404 62.379048,305.58845 62.379048,296.29433 C62.379048,282.41849 73.627648,271.16984 87.503488,271.16984 C89.972856,271.16984 92.354752,271.53461 94.607992,272.19926 C98.055128,267.7583 103.430168,264.88874 109.487296,264.88874 C119.894264,264.88874 128.330648,273.32516 128.330648,283.73204 C128.330648,286.11209 127.871024,288.38 127.065912,290.47655 Z M109.487296,271.16984 C106.012968,271.16984 102.868464,272.58086 100.59428,274.86056 C104.269864,277.11425 107.325048,280.28234 109.43476,284.05397 C110.47756,283.87514 111.534088,283.73204 112.627928,283.73204 C115.965856,283.73204 119.095488,284.60837 121.814688,286.13081 C121.964992,285.35375 122.04956,284.55311 122.04956,283.73204 C122.04956,276.79412 116.425304,271.16984 109.487296,271.16984 Z M109.487296,258.60764 C107.752904,258.60764 106.34684,257.20157 106.34684,255.46709 L106.34684,249.18599 C106.34684,247.45151 107.752904,246.04544 109.487296,246.04544 C111.221864,246.04544 112.627928,247.45151 112.627928,249.18599 L112.627928,255.46709 C112.627928,257.20157 111.221864,258.60764 109.487296,258.60764 Z M87.28032,265.9664 L82.838872,261.52499 C81.612416,260.29856 81.612416,258.31001 82.838872,257.08358 C84.065328,255.85715 86.053776,255.85715 87.28032,257.08358 L91.72168,261.52499 C92.948136,262.75151 92.948136,264.73997 91.72168,265.9664 C90.495224,267.19292 88.506776,267.19292 87.28032,265.9664 Z M84.362944,308.85653 C86.097424,308.85653 87.503488,310.2626 87.503488,311.99708 C87.503488,313.73156 86.097424,315.13763 84.362944,315.13763 C82.628464,315.13763 81.222312,313.73156 81.222312,311.99708 C81.222312,310.2626 82.628464,308.85653 84.362944,308.85653 Z M84.362944,321.41873 C86.097424,321.41873 87.503488,322.8248 87.503488,324.55928 C87.503488,326.29385 86.097424,327.69983 84.362944,327.69983 C82.628464,327.69983 81.222312,326.29385 81.222312,324.55928 C81.222312,322.8248 82.628464,321.41873 84.362944,321.41873 Z M96.92512,315.13763 C98.6596,315.13763 100.065664,316.5437 100.065664,318.27818 C100.065664,320.01266 98.6596,321.41873 96.92512,321.41873 C95.190728,321.41873 93.784576,320.01266 93.784576,318.27818 C93.784576,316.5437 95.190728,315.13763 96.92512,315.13763 Z M96.92512,327.69983 C98.6596,327.69983 100.065664,329.10599 100.065664,330.84038 C100.065664,332.57495 98.6596,333.98093 96.92512,333.98093 C95.190728,333.98093 93.784576,332.57495 93.784576,330.84038 C93.784576,329.10599 95.190728,327.69983 96.92512,327.69983 Z M109.487296,308.85653 C111.221864,308.85653 112.627928,310.2626 112.627928,311.99708 C112.627928,313.73156 111.221864,315.13763 109.487296,315.13763 C107.752904,315.13763 106.34684,313.73156 106.34684,311.99708 C106.34684,310.2626 107.752904,308.85653 109.487296,308.85653 Z M109.487296,321.41873 C111.221864,321.41873 112.627928,322.8248 112.627928,324.55928 C112.627928,326.29385 111.221864,327.69983 109.487296,327.69983 C107.752904,327.69983 106.34684,326.29385 106.34684,324.55928 C106.34684,322.8248 107.752904,321.41873 109.487296,321.41873 Z" id="path-1"></path>
        <filter x="1.0%" y="0.6%" width="97.5%" height="99.9%" filterUnits="objectBoundingBox" id="filter-2">
            <feOffset dx="0" dy="1" in="SourceAlpha" result="shadowOffsetOuter1"></feOffset>
            <feColorMatrix values="0 0 0 0 0.8901961   0 0 0 0 0.7137255   0 0 0 0 0.23921569  0 0 0 0.75 0" type="matrix" in="shadowOffsetOuter1"></feColorMatrix>
        </filter>
    </defs>
    <g id="Page-1" stroke="none" stroke-width="1" fill="none" fill-rule="evenodd">
        <g id="Artboard" transform="translate(-155.000000, -340.000000)">
            <g id="Group-2" transform="translate(93.000000, 94.000000)">
                <g id="Group-1">
                    <g id="Combined-shape-84">
                        <use fill="black" fill-opacity="1" filter="url(#filter-2)" xlink:href="#path-1"></use>
                        <use fill="#FFFFFF" fill-rule="evenodd" xlink:href="#path-1"></use>
                    </g>
                </g>
            </g>
        </g>
    </g>
</svg>