<?xml version="1.0" encoding="UTF-8"?>
<svg width="24px" height="23px" viewBox="0 0 24 23" version="1.1" xmlns="http://www.w3.org/2000/svg" xmlns:xlink="http://www.w3.org/1999/xlink">
    <!-- Generator: Sketch 53.2 (72643) - https://sketchapp.com -->
    <title>Combined shape 161</title>
    <desc>Created with Sketch.</desc>
    <defs>
        <path d="M153.144453,30.759096 L151.420557,30.759096 C150.94452,30.759096 150.558609,30.373176 150.558609,29.897136 C150.558609,29.421096 150.94452,29.035176 151.420557,29.035176 L153.144453,29.035176 C153.620544,29.035176 154.006428,29.421096 154.006428,29.897136 C154.006428,30.373176 153.620544,30.759096 153.144453,30.759096 Z M149.757924,25.021176 C149.421261,25.357776 148.875537,25.357776 148.538928,25.021176 C148.202265,24.684528 148.202265,24.138792 148.538928,23.802168 L149.757924,22.583184 C150.094506,22.24656 150.640311,22.24656 150.976893,22.583184 C151.313502,22.919784 151.313502,23.465568 150.976893,23.802168 L149.757924,25.021176 Z M148.487574,31.748232 L148.48752,31.748232 C149.24136,32.646792 149.696634,33.804216 149.696634,35.068896 C149.696634,37.92516 147.381168,40.240632 144.524865,40.240632 L137.629227,40.240632 C133.820823,40.240632 130.733535,37.153344 130.733535,33.344952 C130.733535,29.536584 133.820823,26.449296 137.629227,26.449296 C138.306954,26.449296 138.960705,26.549424 139.579113,26.731848 C140.525247,25.512936 142.000473,24.725376 143.662944,24.725376 C146.519193,24.725376 148.834659,27.040848 148.834659,29.897136 C148.834659,30.550344 148.708542,31.172808 148.487574,31.748232 Z M132.457458,33.344952 C132.457458,36.201264 134.772924,38.516712 137.629227,38.516712 L144.524865,38.516712 C146.429067,38.516712 147.972738,36.973056 147.972738,35.068896 C147.972738,33.164712 146.429067,31.621056 144.524865,31.621056 C143.835123,31.621056 143.195925,31.828536 142.657005,32.1774 C142.12605,29.885688 140.082366,28.17324 137.629227,28.17324 C134.772924,28.17324 132.457458,30.488688 132.457458,33.344952 Z M143.662944,26.449296 C142.709358,26.449296 141.84633,26.83656 141.222144,27.46224 C142.230945,28.080816 143.069457,28.950312 143.648472,29.98548 C143.934672,29.9364 144.224706,29.897136 144.524865,29.897136 C145.441002,29.897136 146.29998,30.13764 147.046287,30.555504 C147.08757,30.342216 147.110763,30.122472 147.110763,29.897136 C147.110763,27.992952 145.567146,26.449296 143.662944,26.449296 Z M143.662944,23.001456 C143.186907,23.001456 142.800996,22.61556 142.800996,22.13952 L142.800996,20.415576 C142.800996,19.939536 143.186907,19.553616 143.662944,19.553616 C144.138954,19.553616 144.524865,19.939536 144.524865,20.415576 L144.524865,22.13952 C144.524865,22.61556 144.138954,23.001456 143.662944,23.001456 Z M137.567964,25.021176 L136.348968,23.802168 C136.012359,23.465568 136.012359,22.919784 136.348968,22.583184 C136.685577,22.24656 137.231355,22.24656 137.567964,22.583184 L138.786933,23.802168 C139.123596,24.138792 139.123596,24.684528 138.786933,25.021176 C138.450351,25.357776 137.9046,25.357776 137.567964,25.021176 Z" id="path-1"></path>
        <filter x="4.6%" y="4.4%" width="89.9%" height="94.5%" filterUnits="objectBoundingBox" id="filter-2">
            <feOffset dx="0" dy="1" in="SourceAlpha" result="shadowOffsetOuter1"></feOffset>
            <feColorMatrix values="0 0 0 0 0.8627451   0 0 0 0 0.23921569   0 0 0 0 0.4  0 0 0 0.75 0" type="matrix" in="shadowOffsetOuter1"></feColorMatrix>
        </filter>
    </defs>
    <g id="Page-1" stroke="none" stroke-width="1" fill="none" fill-rule="evenodd">
        <g id="Artboard" transform="translate(-453.000000, -446.000000)">
            <g id="Group-2" transform="translate(93.000000, 94.000000)">
                <g id="Group-1">
                    <g id="Group-6" transform="translate(230.000000, 333.000000)">
                        <g id="Combined-shape-161">
                            <use fill="black" fill-opacity="1" filter="url(#filter-2)" xlink:href="#path-1"></use>
                            <use fill="#FFFFFF" fill-rule="evenodd" xlink:href="#path-1"></use>
                        </g>
                    </g>
                </g>
            </g>
        </g>
    </g>
</svg>