<?xml version="1.0" encoding="UTF-8"?>
<svg width="63px" height="65px" viewBox="0 0 63 65" version="1.1" xmlns="http://www.w3.org/2000/svg" xmlns:xlink="http://www.w3.org/1999/xlink">
    <!-- Generator: Sketch 53.2 (72643) - https://sketchapp.com -->
    <title>Combined shape 87</title>
    <desc>Created with Sketch.</desc>
    <defs>
        <path d="M329.713175,280.1545 L329.713175,280.214264 L328.84848,280.214264 L325.38944,280.214264 C324.115895,280.214264 323.0835,279.181794 323.0835,277.908258 C323.0835,276.634655 324.115895,275.602252 325.38944,275.602252 L328.84848,275.602252 C330.122025,275.602252 331.15442,274.569782 331.15442,273.296246 C331.15442,272.02271 330.122025,270.99024 328.84848,270.99024 C327.574935,270.99024 326.542475,269.957837 326.542475,268.684234 C326.542475,267.410698 327.574935,266.378228 328.84848,266.378228 C329.007665,266.378228 329.16308,266.394375 329.31323,266.425061 C332.912995,266.668472 335.766495,269.634696 335.766495,273.296246 C335.766495,276.823461 333.12483,279.728112 329.713175,280.1545 Z M323.41708,257.154204 L323.42813,257.154204 C323.673375,257.847721 323.871885,258.563549 324.00494,259.30276 C322.39762,258.15505 320.48844,257.405253 318.413965,257.209546 C318.40298,257.19025 318.388615,257.173366 318.3775,257.154204 L318.38036,257.154204 C316.784805,254.399767 313.812615,252.542125 310.400375,252.542125 C308.55509,252.542125 306.845005,253.097287 305.40324,254.030597 C303.982795,247.899561 298.51532,243.318168 291.952335,243.318168 C284.31087,243.318168 278.116305,249.512787 278.116305,257.154204 C278.116305,264.795621 284.31087,270.99024 291.952335,270.99024 L306.01996,270.99024 L317.31839,270.99024 C318.592,270.99024 319.624395,269.957837 319.624395,268.684234 C319.624395,267.410698 318.592,266.378228 317.31839,266.378228 C316.044845,266.378228 315.01245,265.345825 315.01245,264.072155 C315.01245,262.798619 316.044845,261.766216 317.31839,261.766216 C317.47764,261.766216 317.633055,261.782363 317.78314,261.813049 C321.38297,262.05646 324.236405,265.022684 324.236405,268.684234 C324.236405,272.211382 321.59487,275.1161 318.18315,275.542488 L318.18315,275.602252 L317.31839,275.602252 L308.1101,275.602252 L291.952335,275.602252 C290.67879,275.602252 289.64633,276.634655 289.64633,277.908258 C289.64633,279.181794 290.67879,280.214264 291.952335,280.214264 L317.31839,280.214264 L318.18315,280.214264 L318.18315,280.273961 C321.59487,280.700349 324.236405,283.605134 324.236405,287.132282 C324.236405,290.793832 321.38297,293.759989 317.78314,294.003467 C317.633055,294.034153 317.47764,294.0503 317.31839,294.0503 C316.044845,294.0503 315.01245,293.017897 315.01245,291.744294 C315.01245,290.470758 316.044845,289.438288 317.31839,289.438288 C318.592,289.438288 319.624395,288.405885 319.624395,287.132282 C319.624395,285.858746 318.592,284.826276 317.31839,284.826276 L291.952335,284.826276 L291.08764,284.826276 L291.08764,284.766512 C287.675985,284.340124 285.03432,281.435473 285.03432,277.908258 C285.03432,276.690801 285.372775,275.56433 285.92625,274.575142 C278.70111,272.075305 273.504295,265.229446 273.504295,257.154204 C273.504295,246.965581 281.76378,238.706156 291.952335,238.706156 C294.261005,238.706156 296.465675,239.138976 298.501345,239.9143 C300.38693,234.515038 305.51101,230.635068 311.55341,230.635068 C312.42415,230.635068 313.27292,230.72525 314.099005,230.879149 C313.947165,231.543052 313.859415,232.231209 313.859415,232.941141 C313.859415,238.035419 317.989125,242.165165 323.0835,242.165165 C323.793365,242.165165 324.48152,242.077395 325.14543,241.925573 C325.29922,242.751683 325.38944,243.600439 325.38944,244.471171 C325.38944,248.085218 323.992395,251.365069 321.723375,253.829597 C322.43532,254.843374 322.9938,255.967098 323.41708,257.154204 Z M309.491415,235.486739 C306.1471,236.251544 303.52487,238.841965 302.66024,242.145467 C304.87076,243.728141 306.72183,245.781691 308.055825,248.166489 C308.82146,248.035169 309.597235,247.93018 310.400375,247.93018 C313.4193,247.93018 316.20377,248.907978 318.47825,250.548942 C319.46833,249.419255 320.191195,248.04877 320.53784,246.533096 C314.940105,245.49071 310.533885,241.084455 309.491415,235.486739 Z" id="path-1"></path>
        <filter x="1.5%" y="1.7%" width="97.3%" height="97.6%" filterUnits="objectBoundingBox" id="filter-2">
            <feOffset dx="0" dy="1" in="SourceAlpha" result="shadowOffsetOuter1"></feOffset>
            <feColorMatrix values="0 0 0 0 0.8627451   0 0 0 0 0.23921569   0 0 0 0 0.4  0 0 0 0.75 0" type="matrix" in="shadowOffsetOuter1"></feColorMatrix>
        </filter>
    </defs>
    <g id="Page-1" stroke="none" stroke-width="1" fill="none" fill-rule="evenodd">
        <g id="Artboard" transform="translate(-366.000000, -324.000000)">
            <g id="Group-2" transform="translate(93.000000, 94.000000)">
                <g id="Group-1">
                    <g id="Combined-shape-87">
                        <use fill="black" fill-opacity="1" filter="url(#filter-2)" xlink:href="#path-1"></use>
                        <use fill="#FFFFFF" fill-rule="evenodd" xlink:href="#path-1"></use>
                    </g>
                </g>
            </g>
        </g>
    </g>
</svg>