<svg xmlns="http://www.w3.org/2000/svg" width="146" height="121" viewBox="0 0 146 121">
  <defs>
    <style>
      .cls-1 {
        fill: #778287;
        fill-rule: evenodd;
      }
    </style>
  </defs>
  <path id="_3" data-name="3" class="cls-1" d="M90.321,15.832a2.533,2.533,0,0,0,2.52-2.549V3.087a2.521,2.521,0,1,0-5.041,0v10.2A2.533,2.533,0,0,0,90.321,15.832Zm52.926,38.235H133.166a2.549,2.549,0,0,0,0,5.1h10.081A2.549,2.549,0,0,0,143.247,54.067ZM89.061,120.341c15.028,0,27.724-13.18,27.724-28.783A28.992,28.992,0,0,0,110.7,74,29.446,29.446,0,1,0,63.575,42.41a27.661,27.661,0,0,0-26.61,21.719,26.824,26.824,0,0,0-8.393-1.351c-15.028,0-27.724,13.18-27.724,28.781s12.7,28.783,27.724,28.783H89.061ZM91.3,27.3a24.569,24.569,0,0,1,16,42.951A27.029,27.029,0,0,0,90.54,62.82,27.923,27.923,0,0,0,68.8,42.864,24.386,24.386,0,0,1,91.3,27.3ZM5.89,91.558c0-12.838,10.386-23.683,22.683-23.683a22.235,22.235,0,0,1,9.318,2.078,2.5,2.5,0,0,0,2.289-.107,2.55,2.55,0,0,0,1.258-1.937,22.571,22.571,0,0,1,44.65-2.031,2.526,2.526,0,0,0,2.471,2.047,2.479,2.479,0,0,0,.5-0.05c12.3,0,22.682,10.846,22.682,23.683s-10.386,23.686-22.682,23.686H28.573C16.276,115.244,5.89,104.4,5.89,91.558ZM59.5,27.392a2.5,2.5,0,0,0,3.564,0,2.568,2.568,0,0,0,0-3.6l-7.131-7.209a2.5,2.5,0,0,0-3.564,0,2.569,2.569,0,0,0,0,3.6Zm62.373,0.747a2.5,2.5,0,0,0,1.782-.747l7.13-7.209a2.568,2.568,0,0,0,0-3.6,2.5,2.5,0,0,0-3.563,0l-7.131,7.209a2.569,2.569,0,0,0,0,3.6A2.5,2.5,0,0,0,121.876,28.139ZM123,81.412l7.128,7.211a2.5,2.5,0,0,0,3.564,0,2.569,2.569,0,0,0,0-3.6l-7.128-7.212a2.5,2.5,0,0,0-3.564,0A2.57,2.57,0,0,0,123,81.412Z"/>
</svg>
