<svg xmlns="http://www.w3.org/2000/svg" width="21" height="19" viewBox="0 0 21 19">
  <defs>
    <style>
      .cls-1 {
        fill: #d5dbdc;
        fill-rule: evenodd;
      }
    </style>
  </defs>
  <path id="refresh" class="cls-1" d="M21,1.9V7.6a0.952,0.952,0,0,1-.954.95H14.318a0.95,0.95,0,1,1,0-1.9h3.219C16.243,5.394,15.222,4.4,14.945,4.126a7.653,7.653,0,0,0-10.8,0A7.6,7.6,0,0,0,6.671,16.544a7.66,7.66,0,0,0,9.35-3.013,7.535,7.535,0,0,0,.725-1.5,0.954,0.954,0,0,1,1.8.632,9.442,9.442,0,0,1-.908,1.874A9.569,9.569,0,0,1,2.8,16.218,9.492,9.492,0,0,1,5.954.7,9.569,9.569,0,0,1,16.3,2.783c0.285,0.284,1.4,1.369,2.8,2.722V1.9A0.955,0.955,0,0,1,21,1.9Z"/>
</svg>
