<svg id="stats" xmlns="http://www.w3.org/2000/svg" width="30" height="22" viewBox="0 0 30 22">
  <defs>
    <style>
      .cls-1 {
        fill: #525a5d;
        stroke: #2e3335;
        stroke-linejoin: round;
        stroke-width: 1px;
        fill-rule: evenodd;
      }
    </style>
  </defs>
  <g id="wind">
    <path class="cls-1" d="M26.779,13.3c-2.948,0-3.518-2.539-5.9-2.539-2.567,0-2.948,2.566-5.9,2.566s-3.328-2.566-5.9-2.566c-2.513,0-2.948,2.539-5.9,2.539s-2.948-3.143,0-3.143c2.513,0,2.948-2.49,5.9-2.49s3.41,2.517,5.9,2.517c2.542,0,2.946-2.517,5.9-2.517s3.355,2.463,5.9,2.463C29.727,10.129,29.727,13.3,26.779,13.3Zm0-5.667c-2.948,0-3.518-2.539-5.9-2.539-2.567,0-2.948,2.567-5.9,2.567s-3.328-2.567-5.9-2.567c-2.513,0-2.948,2.539-5.9,2.539s-2.948-3.143,0-3.143C5.711,4.489,6.146,2,9.093,2s3.41,2.517,5.9,2.517c2.542,0,2.946-2.517,5.9-2.517s3.355,2.463,5.9,2.463C29.727,4.462,29.727,7.632,26.779,7.632ZM3.2,15.822c2.513,0,2.948-2.49,5.9-2.49s3.41,2.517,5.9,2.517c2.542,0,2.946-2.517,5.9-2.517s3.355,2.463,5.9,2.463c2.948,0,2.948,3.17,0,3.17s-3.518-2.539-5.9-2.539c-2.567,0-2.948,2.566-5.9,2.566s-3.328-2.566-5.9-2.566c-2.513,0-2.948,2.539-5.9,2.539S0.251,15.822,3.2,15.822Z"/>
  </g>
</svg>
