<svg id="stats" xmlns="http://www.w3.org/2000/svg" width="30" height="22" viewBox="0 0 30 22">
  <defs>
    <style>
      .cls-1 {
        fill: #525a5d;
        fill-rule: evenodd;
      }
    </style>
  </defs>
  <g id="sun">
    <path class="cls-1" d="M15.875,1.375v1.75a0.875,0.875,0,1,1-1.75,0V1.375A0.875,0.875,0,1,1,15.875,1.375ZM15,18a0.875,0.875,0,0,0-.875.875v1.75a0.875,0.875,0,0,0,1.75,0v-1.75A0.875,0.875,0,0,0,15,18ZM7.575,3.575a0.875,0.875,0,0,0,0,1.238L8.813,6.05A0.875,0.875,0,1,0,10.05,4.813L8.813,3.575A0.875,0.875,0,0,0,7.575,3.575ZM19.95,15.95a0.875,0.875,0,0,0,0,1.238l1.238,1.238a0.875,0.875,0,1,0,1.238-1.238L21.187,15.95A0.875,0.875,0,0,0,19.95,15.95ZM4.5,11a0.875,0.875,0,0,0,.875.875h1.75a0.875,0.875,0,0,0,0-1.75H5.375A0.875,0.875,0,0,0,4.5,11ZM22,11a0.875,0.875,0,0,0,.875.875h1.75a0.875,0.875,0,0,0,0-1.75h-1.75A0.875,0.875,0,0,0,22,11ZM7.575,18.425a0.875,0.875,0,0,0,1.237,0l1.237-1.238A0.875,0.875,0,1,0,8.813,15.95L7.575,17.187A0.875,0.875,0,0,0,7.575,18.425ZM19.95,6.05a0.875,0.875,0,0,0,1.238,0l1.238-1.238a0.875,0.875,0,1,0-1.238-1.238L19.95,4.813A0.875,0.875,0,0,0,19.95,6.05ZM20.25,11A5.25,5.25,0,1,1,15,5.75,5.25,5.25,0,0,1,20.25,11ZM18.5,11A3.5,3.5,0,1,0,15,14.5,3.5,3.5,0,0,0,18.5,11Z"/>
  </g>
</svg>
