<?xml version="1.0" encoding="utf-8"?><svg xmlns="http://www.w3.org/2000/svg" xmlns:xlink="http://www.w3.org/1999/xlink"><symbol viewBox="0 0 34.26 20.79" id="icon-cloud" xmlns="http://www.w3.org/2000/svg"><path d="M18 22h-6.5c-14 1-14-17 1-14-2-9 15-9 13 0 13-3 13 15 1 14z" fill="#832D34"/></symbol><symbol viewBox="0 0 142.8 142.8" id="icon-sun" xmlns="http://www.w3.org/2000/svg"><g data-name="sun copy" transform="translate(-185.6 -122.6)"><g data-name="Ellipse 1" transform="translate(222.09 159.31)" fill="none" stroke="unset" stroke-width="9"><circle cx="34.31" cy="34.31" r="34.31" stroke="none"/><circle cx="34.31" cy="34.31" r="29.81"/></g><rect data-name="Rounded Rectangle 1" width="24.99" height="10.71" rx="4.76" transform="translate(303.41 188.05)" fill="unset"/><rect data-name="Rounded Rectangle 1 copy" width="24.99" height="10.71" rx="4.76" transform="translate(185.6 188.05)" fill="unset"/><rect data-name="Rounded Rectangle 1 copy 2" width="10.71" height="24.99" rx="4.76" transform="translate(252.24 122.6)" fill="unset"/><rect data-name="Rounded Rectangle 1 copy 2" width="10.71" height="24.99" rx="4.76" transform="translate(252.24 240.41)" fill="unset"/><path data-name="Rounded Rectangle 1 copy 4" d="M205.243 142.49l.841-.841a4.76 4.76 0 0 1 6.732 0l12.384 12.382a4.76 4.76 0 0 1 0 6.732l-.841.841a4.76 4.76 0 0 1-6.732 0l-12.383-12.383a4.76 4.76 0 0 1-.001-6.731zM289.991 227.238l.842-.841a4.76 4.76 0 0 1 6.732 0l12.383 12.383a4.76 4.76 0 0 1 0 6.732l-.841.841a4.76 4.76 0 0 1-6.732 0l-12.383-12.383a4.76 4.76 0 0 1-.001-6.732z" fill="unset"/><path data-name="Rounded Rectangle 1 copy 3" d="M311.005 139.748l.841.842a4.76 4.76 0 0 1 0 6.732L297.564 161.6a4.76 4.76 0 0 1-6.732 0l-.842-.841a4.76 4.76 0 0 1 0-6.732l14.283-14.283a4.76 4.76 0 0 1 6.732.004zM224.357 226.4l.841.841a4.76 4.76 0 0 1 0 6.732l-14.283 14.283a4.76 4.76 0 0 1-6.732 0l-.841-.842a4.76 4.76 0 0 1 0-6.732l14.284-14.282a4.76 4.76 0 0 1 6.731 0z" fill="unset"/></g></symbol></svg>